<svg width="87" height="95" viewBox="0 0 87 95" fill="none" xmlns="http://www.w3.org/2000/svg">
<path fill-rule="evenodd" clip-rule="evenodd" d="M23.5309 23.5309C27.8628 23.5309 31.3745 20.0193 31.3745 15.6873C31.3745 11.3552 27.8628 7.84364 23.5309 7.84364C19.199 7.84364 15.6873 11.3552 15.6873 15.6873C15.6873 20.0193 19.199 23.5309 23.5309 23.5309ZM37.1196 7.84364C34.4071 3.15471 29.3374 0 23.5309 0C16.2213 0 10.0793 4.99942 8.33786 11.7655H3.92182C1.75588 11.7655 0 13.5213 0 15.6873C0 17.8533 1.75588 19.6091 3.92182 19.6091H8.33786C10.0793 26.375 16.2213 31.3745 23.5309 31.3745C32.1948 31.3745 39.2182 24.351 39.2182 15.6873H47.0618C47.0618 24.351 54.0854 31.3745 62.7491 31.3745C70.0586 31.3745 76.2005 26.375 77.9422 19.6091H82.3582C84.5242 19.6091 86.28 17.8533 86.28 15.6873C86.28 13.5213 84.5242 11.7655 82.3582 11.7655H77.9422C76.2005 4.99942 70.0586 0 62.7491 0C56.9424 0 51.8727 3.15471 49.1604 7.84364H37.1196ZM54.9055 15.6873C54.9055 20.0193 58.417 23.5309 62.7491 23.5309C67.0811 23.5309 70.5927 20.0193 70.5927 15.6873C70.5927 11.3552 67.0811 7.84364 62.7491 7.84364C58.417 7.84364 54.9055 11.3552 54.9055 15.6873Z" fill="#5465FF"/>
<path d="M62 53.2875C62 50.0083 59.3417 47.35 56.0625 47.35H25.1875C24.5317 47.35 24 47.8817 24 48.5375C24 49.1933 24.5317 49.725 25.1875 49.725H56.0625C58.03 49.725 59.625 51.32 59.625 53.2875C59.625 55.255 58.03 56.85 56.0625 56.85H29.9375C26.6583 56.85 24 59.5083 24 62.7875V88.9125C24 92.1917 26.6583 94.85 29.9375 94.85H51.3125C57.215 94.85 62 90.065 62 84.1625V53.2875ZM59.625 84.1625C59.625 88.7534 55.9034 92.475 51.3125 92.475H29.9375C27.97 92.475 26.375 90.88 26.375 88.9125V62.7875C26.375 60.82 27.97 59.225 29.9375 59.225H56.0625C57.3992 59.225 58.6327 58.7833 59.625 58.0379V84.1625ZM56.0625 54.475C56.7183 54.475 57.25 53.9433 57.25 53.2875C57.25 52.6317 56.7183 52.1 56.0625 52.1H25.1875C24.5317 52.1 24 52.6317 24 53.2875C24 53.9433 24.5317 54.475 25.1875 54.475H56.0625ZM52.5 67.5375C52.5 66.8817 51.9683 66.35 51.3125 66.35H34.6875C34.0317 66.35 33.5 66.8817 33.5 67.5375V74.6625C33.5 75.3183 34.0317 75.85 34.6875 75.85H51.3125C51.9683 75.85 52.5 75.3183 52.5 74.6625V67.5375ZM50.125 73.475H35.875V68.725H50.125V73.475ZM51.3125 80.6C51.9683 80.6 52.5 80.0683 52.5 79.4125C52.5 78.7567 51.9683 78.225 51.3125 78.225H34.6875C34.0317 78.225 33.5 78.7567 33.5 79.4125C33.5 80.0683 34.0317 80.6 34.6875 80.6H51.3125ZM51.3125 85.35C51.9683 85.35 52.5 84.8183 52.5 84.1625C52.5 83.5067 51.9683 82.975 51.3125 82.975H41.8125C41.1567 82.975 40.625 83.5067 40.625 84.1625C40.625 84.8183 41.1567 85.35 41.8125 85.35H51.3125Z" fill="#5465FF"/>
</svg>
