<svg width="145" height="25" viewBox="0 0 145 25" fill="none" xmlns="http://www.w3.org/2000/svg">
<path d="M128.101 20.0137C128.101 20.1113 127.988 20.1895 127.847 20.1895C127.686 20.2041 127.573 20.126 127.573 20.0137C127.573 19.916 127.686 19.8379 127.827 19.8379C127.974 19.8232 128.101 19.9014 128.101 20.0137ZM126.582 19.7939C126.548 19.8916 126.646 20.0039 126.792 20.0332C126.919 20.082 127.065 20.0332 127.095 19.9355C127.124 19.8379 127.031 19.7256 126.885 19.6816C126.758 19.6475 126.616 19.6963 126.582 19.7939ZM128.74 19.7109C128.599 19.7451 128.501 19.8379 128.516 19.9502C128.53 20.0479 128.657 20.1113 128.804 20.0771C128.945 20.043 129.043 19.9502 129.028 19.8525C129.014 19.7598 128.882 19.6963 128.74 19.7109ZM131.953 1C125.181 1 120 6.1416 120 12.9141C120 18.3291 123.408 22.9629 128.276 24.5938C128.901 24.7061 129.121 24.3203 129.121 24.0029C129.121 23.7002 129.106 22.0303 129.106 21.0049C129.106 21.0049 125.688 21.7373 124.971 19.5498C124.971 19.5498 124.414 18.1289 123.613 17.7627C123.613 17.7627 122.495 16.9961 123.691 17.0107C123.691 17.0107 124.907 17.1084 125.576 18.2705C126.646 20.1553 128.438 19.6133 129.136 19.291C129.248 18.5098 129.565 17.9678 129.917 17.6455C127.188 17.3428 124.434 16.9473 124.434 12.25C124.434 10.9072 124.805 10.2334 125.586 9.37402C125.459 9.05664 125.044 7.74805 125.713 6.05859C126.733 5.74121 129.082 7.37695 129.082 7.37695C130.059 7.10352 131.108 6.96191 132.148 6.96191C133.188 6.96191 134.238 7.10352 135.215 7.37695C135.215 7.37695 137.563 5.73633 138.584 6.05859C139.253 7.75293 138.838 9.05664 138.711 9.37402C139.492 10.2383 139.971 10.9121 139.971 12.25C139.971 16.9619 137.095 17.3379 134.365 17.6455C134.814 18.0312 135.195 18.7637 135.195 19.9111C135.195 21.5566 135.181 23.5928 135.181 23.9932C135.181 24.3105 135.405 24.6963 136.025 24.584C140.908 22.9629 144.219 18.3291 144.219 12.9141C144.219 6.1416 138.726 1 131.953 1ZM124.746 17.8408C124.683 17.8896 124.697 18.002 124.78 18.0947C124.858 18.1729 124.971 18.207 125.034 18.1436C125.098 18.0947 125.083 17.9824 125 17.8896C124.922 17.8115 124.81 17.7773 124.746 17.8408ZM124.219 17.4453C124.185 17.5088 124.233 17.5869 124.331 17.6357C124.409 17.6846 124.507 17.6699 124.541 17.6016C124.575 17.5381 124.526 17.46 124.429 17.4111C124.331 17.3818 124.253 17.3965 124.219 17.4453ZM125.801 19.1836C125.723 19.2471 125.752 19.3936 125.864 19.4863C125.977 19.5986 126.118 19.6133 126.182 19.5352C126.245 19.4717 126.216 19.3252 126.118 19.2324C126.011 19.1201 125.864 19.1055 125.801 19.1836ZM125.244 18.4658C125.166 18.5146 125.166 18.6416 125.244 18.7539C125.322 18.8662 125.454 18.915 125.518 18.8662C125.596 18.8027 125.596 18.6758 125.518 18.5635C125.449 18.4512 125.322 18.4023 125.244 18.4658Z" fill="#EDF2EF"/>
<path d="M88.946 7.33081C85.8406 7.33081 83.3357 9.83569 83.3357 12.9412C83.3357 16.0466 85.8406 18.5515 88.946 18.5515C92.0515 18.5515 94.5564 16.0466 94.5564 12.9412C94.5564 9.83569 92.0515 7.33081 88.946 7.33081ZM88.946 16.5886C86.9392 16.5886 85.2986 14.9529 85.2986 12.9412C85.2986 10.9294 86.9343 9.2937 88.946 9.2937C90.9578 9.2937 92.5935 10.9294 92.5935 12.9412C92.5935 14.9529 90.9529 16.5886 88.946 16.5886ZM96.0945 7.10132C96.0945 7.82886 95.5085 8.40991 94.7859 8.40991C94.0584 8.40991 93.4773 7.82397 93.4773 7.10132C93.4773 6.37866 94.0632 5.79272 94.7859 5.79272C95.5085 5.79272 96.0945 6.37866 96.0945 7.10132ZM99.8103 8.42944C99.7273 6.67651 99.3269 5.12378 98.0427 3.84448C96.7634 2.56519 95.2107 2.16479 93.4578 2.0769C91.6511 1.97437 86.2361 1.97437 84.4294 2.0769C82.6814 2.15991 81.1287 2.5603 79.8445 3.8396C78.5603 5.1189 78.1648 6.67163 78.0769 8.42456C77.9744 10.2312 77.9744 15.6462 78.0769 17.4529C78.1599 19.2058 78.5603 20.7585 79.8445 22.0378C81.1287 23.3171 82.6765 23.7175 84.4294 23.8054C86.2361 23.908 91.6511 23.908 93.4578 23.8054C95.2107 23.7224 96.7634 23.322 98.0427 22.0378C99.322 20.7585 99.7224 19.2058 99.8103 17.4529C99.9128 15.6462 99.9128 10.2361 99.8103 8.42944ZM97.4763 19.3914C97.0955 20.3484 96.3582 21.0857 95.3962 21.4714C93.9558 22.0427 90.5378 21.9109 88.946 21.9109C87.3542 21.9109 83.9314 22.0378 82.4958 21.4714C81.5388 21.0906 80.8015 20.3533 80.4158 19.3914C79.8445 17.9509 79.9763 14.533 79.9763 12.9412C79.9763 11.3494 79.8494 7.92651 80.4158 6.49097C80.7966 5.53394 81.5339 4.79663 82.4958 4.41089C83.9363 3.8396 87.3542 3.97144 88.946 3.97144C90.5378 3.97144 93.9607 3.84448 95.3962 4.41089C96.3533 4.79175 97.0906 5.52905 97.4763 6.49097C98.0476 7.9314 97.9158 11.3494 97.9158 12.9412C97.9158 14.533 98.0476 17.9558 97.4763 19.3914Z" fill="#EDF2EF"/>
<path d="M55.4302 8.06025C55.446 8.28232 55.446 8.50444 55.446 8.72651C55.446 15.5 50.2906 23.3045 40.868 23.3045C37.9651 23.3045 35.2684 22.4638 33 21.0044C33.4125 21.052 33.809 21.0679 34.2373 21.0679C36.6326 21.0679 38.8375 20.2589 40.5983 18.8788C38.3458 18.8312 36.4581 17.356 35.8077 15.3255C36.125 15.373 36.4422 15.4048 36.7754 15.4048C37.2354 15.4048 37.6955 15.3413 38.1237 15.2303C35.776 14.7544 34.0152 12.6922 34.0152 10.2018V10.1383C34.6973 10.519 35.4905 10.757 36.3312 10.7887C34.9511 9.8686 34.0469 8.29819 34.0469 6.52153C34.0469 5.56978 34.3007 4.69731 34.7449 3.93589C37.2671 7.04502 41.0583 9.07544 45.3096 9.29756C45.2303 8.91685 45.1827 8.52031 45.1827 8.12373C45.1827 5.3001 47.4669 3 50.3064 3C51.7816 3 53.1141 3.61865 54.05 4.61802C55.208 4.39595 56.3184 3.96763 57.302 3.38071C56.9212 4.57046 56.1122 5.56982 55.0494 6.2043C56.0805 6.09331 57.0799 5.80771 57.9999 5.41118C57.302 6.42637 56.4295 7.33052 55.4302 8.06025Z" fill="#EDF2EF"/>
<path d="M12.5122 14.0625L13.2065 9.53809H8.86523V6.60205C8.86523 5.36426 9.47168 4.15771 11.416 4.15771H13.3896V0.305664C13.3896 0.305664 11.5986 0 9.88623 0C6.31104 0 3.97412 2.16699 3.97412 6.08984V9.53809H0V14.0625H3.97412V25H8.86523V14.0625H12.5122Z" fill="#EDF2EF"/>
</svg>
