<svg width="87" height="87" viewBox="0 0 87 87" fill="none" xmlns="http://www.w3.org/2000/svg">
<path d="M24.676 62.394L32.273 60.2025L78.0143 13.9134C78.3751 13.5436 78.5759 13.0468 78.5735 12.5302C78.5711 12.0136 78.3656 11.5187 78.0013 11.1524L75.2619 8.38283C75.0849 8.20093 74.8734 8.05612 74.6398 7.95685C74.4062 7.85758 74.1552 7.80583 73.9014 7.80462C73.6476 7.80342 73.3961 7.85278 73.1616 7.94983C72.9271 8.04688 72.7142 8.18968 72.5355 8.36988L26.915 54.5382L24.6717 62.3897L24.676 62.394ZM80.6846 2.89543L83.424 5.66932C87.2031 9.49584 87.2376 15.6692 83.493 19.4568L36.3583 67.161L20.1205 71.8374C19.1291 72.1148 18.0681 71.9877 17.1704 71.4838C16.2727 70.98 15.6115 70.1405 15.3319 69.1497C15.1239 68.4374 15.1209 67.6808 15.3233 66.9669L20.0471 50.4011L67.0567 2.82209C67.9506 1.92201 69.0148 1.20892 70.1871 0.724418C71.3595 0.239916 72.6166 -0.00630236 73.8851 0.000122573C75.1537 0.0065475 76.4082 0.265487 77.5756 0.76184C78.743 1.25819 79.7999 1.98202 80.6846 2.89111V2.89543ZM30.9917 7.86946C33.1315 7.86946 34.8657 9.62526 34.8657 11.7909C34.8691 12.3028 34.7716 12.8104 34.5787 13.2846C34.3858 13.7588 34.1013 14.1904 33.7415 14.5546C33.3817 14.9188 32.9537 15.2085 32.4819 15.4071C32.01 15.6058 31.5037 15.7095 30.9917 15.7123H15.4959C11.2164 15.7123 7.74793 19.2239 7.74793 23.5508V70.5992C7.74793 74.9305 11.2164 78.4421 15.4959 78.4421H61.9835C66.2629 78.4421 69.7357 74.9305 69.7357 70.5992V54.9179C69.7357 52.7522 71.4699 50.9965 73.6097 50.9965C75.7494 50.9965 77.4836 52.7522 77.4836 54.9222V70.5992C77.4836 79.2617 70.5424 86.2849 61.9835 86.2849H15.4959C6.9369 86.2849 0 79.2617 0 70.5992V23.5508C0 14.8926 6.9369 7.86946 15.4959 7.86946H30.9917Z" fill="#5465FF"/>
</svg>
